{
    "accessors" : [
        {
            "bufferView" : 0,
            "componentType" : 5123,
            "count" : 5640,
            "max" : [
                2233
            ],
            "min" : [
                0
            ],
            "type" : "SCALAR"
        },
        {
            "bufferView" : 1,
            "componentType" : 5126,
            "count" : 2234,
            "max" : [
                2.0377049446105957,
                0.009999999776482582,
                0.2104870080947876
            ],
            "min" : [
                -1.9392952919006348,
                -0.009999999776482582,
                -0.4805130362510681
            ],
            "type" : "VEC3"
        },
        {
            "bufferView" : 2,
            "componentType" : 5126,
            "count" : 2234,
            "max" : [
                0.99993896484375,
                1.0,
                0.999969482421875
            ],
            "min" : [
                -0.999969482421875,
                -1.0,
                -0.999969482421875
            ],
            "type" : "VEC3"
        }
    ],
    "asset" : {
        "generator" : "Khronos Blender glTF 2.0 exporter",
        "version" : "2.0"
    },
    "bufferViews" : [
        {
            "buffer" : 0,
            "byteLength" : 11280,
            "byteOffset" : 0,
            "target" : 34963
        },
        {
            "buffer" : 0,
            "byteLength" : 26808,
            "byteOffset" : 11280,
            "target" : 34962
        },
        {
            "buffer" : 0,
            "byteLength" : 26808,
            "byteOffset" : 38088,
            "target" : 34962
        }
    ],
    "buffers" : [
        {
            "byteLength" : 64896,
            "uri" : "test_text.bin"
        }
    ],
    "meshes" : [
        {
            "name" : "CUText",
            "primitives" : [
                {
                    "attributes" : {
                        "NORMAL" : 2,
                        "POSITION" : 1
                    },
                    "indices" : 0
                }
            ]
        }
    ],
    "nodes" : [
        {
            "name" : "Camera",
            "rotation" : [
                0.483536034822464,
                0.33687159419059753,
                -0.20870360732078552,
                0.7804827094078064
            ],
            "translation" : [
                7.481131553649902,
                5.34366512298584,
                6.5076398849487305
            ]
        },
        {
            "name" : "Lamp",
            "rotation" : [
                0.16907580196857452,
                0.7558804154396057,
                -0.27217137813568115,
                0.5709474682807922
            ],
            "scale" : [
                1.005041480064392,
                1.005041480064392,
                1.005041480064392
            ],
            "translation" : [
                3.9738924503326416,
                5.901689052581787,
                -1.020715594291687
            ]
        },
        {
            "mesh" : 0,
            "name" : "Text",
            "rotation" : [
                0.5,
                -0.5,
                0.5000000596046448,
                0.4999999701976776
            ],
            "scale" : [
                0.9999999403953552,
                0.9999999403953552,
                0.9999999403953552
            ],
            "translation" : [
                -1.8212080001831055,
                0.920148491859436,
                0.16598933935165405
            ]
        }
    ],
    "scene" : 0,
    "scenes" : [
        {
            "name" : "Scene",
            "nodes" : [
                2,
                1,
                0
            ]
        }
    ]
}
