{
    "accessors": [
        {
            "bufferView": 0,
            "byteOffset": 0,
            "componentType": 5126,
            "count": 2722818,
            "max": [
                8.410964965820312,
                0.02799999713897705,
                26.396617889404297
            ],
            "min": [
                -8.41096305847168,
                -0.02799999713897705,
                -26.3966121673584
            ],
            "name": "accessor_buffer_CUText_POSITION_0",
            "type": "VEC3"
        },
        {
            "bufferView": 1,
            "byteOffset": 0,
            "componentType": 5126,
            "count": 2722818,
            "max": [
                1.0,
                1.0,
                1.0
            ],
            "min": [
                -1.0,
                -1.0,
                -1.0
            ],
            "name": "accessor_buffer_CUText_NORMAL_0",
            "type": "VEC3"
        },
        {
            "bufferView": 2,
            "byteOffset": 0,
            "componentType": 5125,
            "count": 4511532,
            "max": [
                2722817
            ],
            "min": [
                0
            ],
            "name": "accessor_buffer_CUText_0",
            "type": "SCALAR"
        }
    ],
    "asset": {
        "copyright": "",
        "generator": "blendergltf v1.2.0",
        "version": "2.0"
    },
    "bufferViews": [
        {
            "buffer": 0,
            "byteLength": 32673816,
            "byteOffset": 0,
            "byteStride": 12,
            "name": "bufferView_buffer_CUText_POSITION_0",
            "target": 34962
        },
        {
            "buffer": 0,
            "byteLength": 32673816,
            "byteOffset": 32673816,
            "byteStride": 12,
            "name": "bufferView_buffer_CUText_NORMAL_0",
            "target": 34962
        },
        {
            "buffer": 0,
            "byteLength": 18046132,
            "byteOffset": 65347632,
            "name": "bufferView_buffer_CUText_0",
            "target": 34963
        }
    ],
    "buffers": [
        {
            "byteLength": 83393764,
            "name": "buffer_complete_para_samsung",
            "uri": "buffer_complete_para_samsung.bin"
        }
    ],
    "materials": [
        {
            "alphaMode": "OPAQUE",
            "doubleSided": false,
            "emissiveFactor": [
                1.0,
                1.0,
                1.0
            ],
            "name": "Material.001",
            "pbrMetallicRoughness": {
                "baseColorFactor": [
                    0.64000004529953,
                    0.64000004529953,
                    0.64000004529953,
                    1.0
                ],
                "metallicFactor": 0.0,
                "roughnessFactor": 1.0
            }
        }
    ],
    "meshes": [
        {
            "name": "CUText",
            "primitives": [
                {
                    "attributes": {
                        "NORMAL": 1,
                        "POSITION": 0
                    },
                    "indices": 2,
                    "material": 0,
                    "mode": 4
                }
            ]
        }
    ],
    "nodes": [
        {
            "mesh": 0,
            "name": "Text",
            "rotation": [
                -5.338507591545749e-08,
                -0.7071067690849304,
                -0.7071067690849304,
                5.338507591545749e-08
            ],
            "scale": [
                0.30000001192092896,
                0.30000001192092896,
                0.30000001192092896
            ],
            "translation": [
                0.0,
                0.0,
                0.0
            ]
        }
    ],
    "scene": 0,
    "scenes": [
        {
            "extras": {
                "background_color": [
                    0.05,
                    0.05,
                    0.05
                ],
                "frames_per_second": 24
            },
            "name": "Scene",
            "nodes": [
                0
            ]
        }
    ]
}
