{
    "accessors": [
        {
            "bufferView": 0,
            "byteOffset": 0,
            "componentType": 5126,
            "count": 437659,
            "max": [
                13.190500259399414,
                0.02799999713897705,
                7.9607038497924805
            ],
            "min": [
                -13.190500259399414,
                -0.02799999713897705,
                -7.960703372955322
            ],
            "name": "accessor_buffer_CUText_POSITION_0",
            "type": "VEC3"
        },
        {
            "bufferView": 1,
            "byteOffset": 0,
            "componentType": 5126,
            "count": 437659,
            "max": [
                1.0,
                1.0,
                1.0
            ],
            "min": [
                -1.0,
                -1.0,
                -1.0
            ],
            "name": "accessor_buffer_CUText_NORMAL_0",
            "type": "VEC3"
        },
        {
            "bufferView": 2,
            "byteOffset": 0,
            "componentType": 5125,
            "count": 744864,
            "max": [
                437658
            ],
            "min": [
                0
            ],
            "name": "accessor_buffer_CUText_0",
            "type": "SCALAR"
        }
    ],
    "asset": {
        "copyright": "",
        "generator": "blendergltf v1.2.0",
        "version": "2.0"
    },
    "bufferViews": [
        {
            "buffer": 0,
            "byteLength": 5251908,
            "byteOffset": 0,
            "byteStride": 12,
            "name": "bufferView_buffer_CUText_POSITION_0",
            "target": 34962
        },
        {
            "buffer": 0,
            "byteLength": 5251908,
            "byteOffset": 5251908,
            "byteStride": 12,
            "name": "bufferView_buffer_CUText_NORMAL_0",
            "target": 34962
        },
        {
            "buffer": 0,
            "byteLength": 2979460,
            "byteOffset": 10503816,
            "name": "bufferView_buffer_CUText_0",
            "target": 34963
        }
    ],
    "buffers": [
        {
            "byteLength": 13483276,
            "name": "buffer_para1",
            "uri": "buffer_para1.bin"
        }
    ],
    "meshes": [
        {
            "name": "CUText",
            "primitives": [
                {
                    "attributes": {
                        "NORMAL": 1,
                        "POSITION": 0
                    },
                    "indices": 2,
                    "mode": 4
                }
            ]
        }
    ],
    "nodes": [
        {
            "mesh": 0,
            "name": "Text",
            "rotation": [
                -5.338507591545749e-08,
                -0.7071067690849304,
                -0.7071067690849304,
                5.338507591545749e-08
            ],
            "scale": [
                0.30000001192092896,
                0.30000001192092896,
                0.30000001192092896
            ],
            "translation": [
                2.7332578861842452e-22,
                7.152557657263969e-08,
                3.126482252819164e-15
            ]
        }
    ],
    "scene": 0,
    "scenes": [
        {
            "extras": {
                "background_color": [
                    0.05,
                    0.05,
                    0.05
                ],
                "frames_per_second": 24
            },
            "name": "Scene",
            "nodes": [
                0
            ]
        }
    ]
}
